<?xml version="1.0" standalone="no"?>
<!DOCTYPE svg PUBLIC "-//W3C//DTD SVG 20010904//EN"
 "http://www.w3.org/TR/2001/REC-SVG-20010904/DTD/svg10.dtd">
<svg version="1.0" xmlns="http://www.w3.org/2000/svg"
 width="1024.000000pt" height="1024.000000pt" viewBox="0 0 1024.000000 1024.000000"
 preserveAspectRatio="xMidYMid meet">
<metadata>
Created by potrace 1.14, written by Peter Selinger 2001-2017
</metadata>
<g transform="translate(0.000000,1024.000000) scale(0.100000,-0.100000)"
fill="#000000" stroke="none">
<path d="M2625 5278 l0 -3733 1470 0 c1301 0 1659 4 1707 19 7 3 42 7 78 10
84 7 337 51 415 72 33 8 67 17 76 19 109 23 383 124 499 184 535 278 864 687
989 1231 11 47 22 102 25 123 7 44 17 103 23 137 2 14 6 126 7 250 4 241 -10
387 -53 578 -120 528 -458 958 -941 1202 -47 23 -93 46 -103 51 -59 31 -321
117 -404 134 -18 4 -33 10 -33 14 0 3 39 14 88 24 187 38 394 124 550 229 99
66 254 221 320 320 46 69 141 244 147 272 1 6 7 25 14 41 13 31 59 198 68 244
32 171 40 279 38 481 -2 118 -6 231 -9 250 -4 19 -11 64 -17 100 -102 608
-501 1063 -1134 1290 -49 18 -99 36 -110 41 -24 9 -247 66 -290 73 -16 3 -57
10 -90 16 -33 6 -76 13 -95 15 -19 3 -48 7 -65 10 -16 2 -59 7 -95 11 -36 3
-81 8 -100 12 -19 3 -697 7 -1505 9 l-1470 4 0 -3733z m2815 2889 c114 -14
149 -19 200 -29 30 -6 60 -11 65 -12 76 -15 198 -51 227 -67 10 -5 23 -9 29
-9 18 0 168 -79 230 -121 189 -128 331 -349 376 -584 4 -22 8 -42 8 -45 22
-85 22 -428 1 -491 -3 -8 -7 -30 -10 -49 -14 -95 -84 -264 -149 -359 -45 -67
-162 -181 -236 -229 -91 -61 -251 -133 -348 -158 -74 -19 -247 -54 -288 -58
-27 -3 -81 -9 -120 -13 -38 -5 -457 -8 -930 -8 l-860 0 0 1123 0 1123 880 -4
c484 -2 900 -6 925 -10z m95 -3067 c33 -5 84 -11 113 -14 370 -42 671 -168
868 -362 222 -218 333 -535 337 -954 1 -116 -8 -266 -18 -321 -3 -13 -7 -40
-10 -61 -9 -59 -43 -182 -70 -254 -97 -258 -280 -456 -535 -581 -157 -77 -389
-141 -572 -159 -35 -3 -94 -10 -133 -14 -38 -4 -477 -7 -975 -6 l-905 1 -1
1360 c0 748 1 1364 4 1368 5 10 1819 7 1897 -3z"/>
</g>
</svg>
